<svg width="13" height="13" viewBox="0 0 13 13" fill="none" xmlns="http://www.w3.org/2000/svg">
<path d="M6.49907 4.10056L1.07422 9.53741C0.90059 9.69022 0.76013 9.87701 0.661514 10.0862C0.562898 10.2955 0.508221 10.5227 0.500858 10.7539C0.493495 10.9851 0.533603 11.2153 0.618705 11.4304C0.703808 11.6454 0.832098 11.8408 0.995653 12.0043C1.15921 12.1679 1.35456 12.2962 1.56963 12.3813C1.78471 12.4664 2.01495 12.5065 2.24613 12.4991C2.47732 12.4918 2.70454 12.4371 2.91376 12.3385C3.12299 12.2399 3.30978 12.0994 3.46259 11.9258L8.89944 6.50093M12.5 3.50047C12.5 5.15758 11.1566 6.50093 9.49953 6.50093C7.84242 6.50093 6.49907 5.15758 6.49907 3.50047C6.49907 1.84335 7.84242 0.5 9.49953 0.5C11.1566 0.5 12.5 1.84335 12.5 3.50047Z" stroke="black" stroke-linecap="round" stroke-linejoin="round"/>
</svg>
