<svg width="13" height="9" viewBox="0 0 13 9" fill="none" xmlns="http://www.w3.org/2000/svg">
<path d="M12.5 6.5V0.5M6.5 4.5H0.5M9.16667 0.5H0.5M6.5 8.5H0.5M10.8333 8.5C11.2754 8.5 11.6993 8.32441 12.0118 8.01184C12.3244 7.69928 12.5 7.27536 12.5 6.83333C12.5 6.39131 12.3244 5.96738 12.0118 5.65482C11.6993 5.34226 11.2754 5.16667 10.8333 5.16667C10.3913 5.16667 9.96738 5.34226 9.65482 5.65482C9.34226 5.96738 9.16667 6.39131 9.16667 6.83333C9.16667 7.27536 9.34226 7.69928 9.65482 8.01184C9.96738 8.32441 10.3913 8.5 10.8333 8.5Z" stroke="black" stroke-linecap="round" stroke-linejoin="round"/>
</svg>
