<svg width="13" height="9" viewBox="0 0 13 9" fill="none" xmlns="http://www.w3.org/2000/svg">
<path d="M2.25709 8.5C1.13203 7.43902 0.5 6.00022 0.5 4.5C0.5 2.99978 1.13203 1.56098 2.25709 0.5M3.95546 6.89887C3.62101 6.58304 3.35589 6.20814 3.17529 5.79562C2.8102 4.9642 2.8102 4.03014 3.17529 3.19873C3.35589 2.7862 3.62101 2.4113 3.95546 2.09547M9.04454 2.10113C9.38231 2.42529 9.64761 2.81007 9.82471 3.23267C10.1898 4.06409 10.1898 4.99815 9.82471 5.82956C9.64411 6.24208 9.379 6.61699 9.04454 6.93281M10.7429 0.5C11.868 1.56098 12.5 2.99978 12.5 4.5C12.5 6.00022 11.868 7.43902 10.7429 8.5M7.70026 4.5C7.70026 5.12493 7.16288 5.63154 6.5 5.63154C5.83712 5.63154 5.29974 5.12493 5.29974 4.5C5.29974 3.87507 5.83712 3.36846 6.5 3.36846C7.16288 3.36846 7.70026 3.87507 7.70026 4.5Z" stroke="black" stroke-linecap="round" stroke-linejoin="round"/>
</svg>
