<svg width="15" height="15" viewBox="0 0 15 15" fill="none" xmlns="http://www.w3.org/2000/svg">
<path d="M6.76201 1.97597H1.89156C1.52249 1.97597 1.16855 2.12258 0.907578 2.38355C0.64661 2.64452 0.5 2.99847 0.5 3.36753V13.1084C0.5 13.4775 0.64661 13.8315 0.907578 14.0924C1.16855 14.3534 1.52249 14.5 1.89156 14.5H11.6325C12.0015 14.5 12.3555 14.3534 12.6165 14.0924C12.8774 13.8315 13.024 13.4775 13.024 13.1084V8.23799M11.9804 0.932302C12.2572 0.655504 12.6326 0.5 13.024 0.5C13.4155 0.5 13.7909 0.655504 14.0677 0.932302C14.3445 1.2091 14.5 1.58452 14.5 1.97597C14.5 2.36742 14.3445 2.74284 14.0677 3.01964L7.45779 9.62954L4.67468 10.3253L5.37046 7.54221L11.9804 0.932302Z" stroke="black" stroke-linecap="round" stroke-linejoin="round"/>
</svg>
