<svg width="12" height="12" viewBox="0 0 12 12" fill="none" xmlns="http://www.w3.org/2000/svg">
<path fill-rule="evenodd" clip-rule="evenodd" d="M10.8 6C10.8 7.27304 10.2943 8.49394 9.39412 9.39411C8.49395 10.2943 7.27305 10.8 6.00001 10.8C4.72697 10.8 3.50607 10.2943 2.6059 9.39411C1.70573 8.49394 1.20001 7.27304 1.20001 6C1.20001 4.72696 1.70573 3.50606 2.6059 2.60588C3.50607 1.70571 4.72697 1.2 6.00001 1.2C7.27305 1.2 8.49395 1.70571 9.39412 2.60588C10.2943 3.50606 10.8 4.72696 10.8 6ZM7.20001 4.2C7.20001 4.51826 7.07358 4.82348 6.84854 5.04853C6.6235 5.27357 6.31827 5.4 6.00001 5.4C5.68175 5.4 5.37653 5.27357 5.15148 5.04853C4.92644 4.82348 4.80001 4.51826 4.80001 4.2C4.80001 3.88174 4.92644 3.57651 5.15148 3.35147C5.37653 3.12643 5.68175 3 6.00001 3C6.31827 3 6.6235 3.12643 6.84854 3.35147C7.07358 3.57651 7.20001 3.88174 7.20001 4.2ZM6.00001 6.6C5.42557 6.59988 4.86318 6.76469 4.37966 7.07484C3.89615 7.38499 3.51184 7.82743 3.27241 8.3496C3.61002 8.74236 4.02858 9.05746 4.49938 9.27328C4.97018 9.48911 5.4821 9.60056 6.00001 9.6C6.51793 9.60056 7.02984 9.48911 7.50065 9.27328C7.97145 9.05746 8.39001 8.74236 8.72761 8.3496C8.48819 7.82743 8.10388 7.38499 7.62036 7.07484C7.13685 6.76469 6.57445 6.59988 6.00001 6.6Z" fill="#8188A0"/>
</svg>
