<svg width="16" height="16" viewBox="0 0 16 16" fill="none" xmlns="http://www.w3.org/2000/svg">
<path fill-rule="evenodd" clip-rule="evenodd" d="M14.4 8.00001C14.4 9.69739 13.7257 11.3253 12.5255 12.5255C11.3252 13.7257 9.69736 14.4 7.99998 14.4C6.30259 14.4 4.67472 13.7257 3.47449 12.5255C2.27426 11.3253 1.59998 9.69739 1.59998 8.00001C1.59998 6.30262 2.27426 4.67476 3.47449 3.47452C4.67472 2.27429 6.30259 1.60001 7.99998 1.60001C9.69736 1.60001 11.3252 2.27429 12.5255 3.47452C13.7257 4.67476 14.4 6.30262 14.4 8.00001ZM9.59998 5.60001C9.59998 6.02435 9.4314 6.43132 9.13135 6.73138C8.83129 7.03143 8.42432 7.20001 7.99998 7.20001C7.57563 7.20001 7.16866 7.03143 6.8686 6.73138C6.56855 6.43132 6.39998 6.02435 6.39998 5.60001C6.39998 5.17566 6.56855 4.76869 6.8686 4.46864C7.16866 4.16858 7.57563 4.00001 7.99998 4.00001C8.42432 4.00001 8.83129 4.16858 9.13135 4.46864C9.4314 4.76869 9.59998 5.17566 9.59998 5.60001ZM7.99998 8.80001C7.23406 8.79985 6.4842 9.0196 5.83951 9.43313C5.19482 9.84666 4.68241 10.4366 4.36318 11.1328C4.81332 11.6565 5.37139 12.0766 5.99913 12.3644C6.62687 12.6522 7.30942 12.8008 7.99998 12.8C8.69053 12.8008 9.37308 12.6522 10.0008 12.3644C10.6286 12.0766 11.1866 11.6565 11.6368 11.1328C11.3175 10.4366 10.8051 9.84666 10.1604 9.43313C9.51575 9.0196 8.76589 8.79985 7.99998 8.80001Z" fill="#8188A0"/>
</svg>
