<svg width="24" height="24" viewBox="0 0 24 24" fill="none" xmlns="http://www.w3.org/2000/svg">
<path fill-rule="evenodd" clip-rule="evenodd" d="M21.6 12C21.6 14.5461 20.5886 16.9879 18.7882 18.7882C16.9879 20.5886 14.5461 21.6 12 21.6C9.45395 21.6 7.01215 20.5886 5.2118 18.7882C3.41145 16.9879 2.40002 14.5461 2.40002 12C2.40002 9.45392 3.41145 7.01212 5.2118 5.21177C7.01215 3.41142 9.45395 2.39999 12 2.39999C14.5461 2.39999 16.9879 3.41142 18.7882 5.21177C20.5886 7.01212 21.6 9.45392 21.6 12ZM14.4 8.39999C14.4 9.03651 14.1472 9.64696 13.6971 10.0971C13.247 10.5471 12.6365 10.8 12 10.8C11.3635 10.8 10.7531 10.5471 10.303 10.0971C9.85288 9.64696 9.60002 9.03651 9.60002 8.39999C9.60002 7.76347 9.85288 7.15303 10.303 6.70294C10.7531 6.25285 11.3635 5.99999 12 5.99999C12.6365 5.99999 13.247 6.25285 13.6971 6.70294C14.1472 7.15303 14.4 7.76347 14.4 8.39999ZM12 13.2C10.8511 13.1998 9.72636 13.5294 8.75932 14.1497C7.79229 14.77 7.02368 15.6549 6.54482 16.6992C7.22004 17.4847 8.05715 18.1149 8.99876 18.5466C9.94037 18.9782 10.9642 19.2011 12 19.2C13.0359 19.2011 14.0597 18.9782 15.0013 18.5466C15.9429 18.1149 16.78 17.4847 17.4552 16.6992C16.9764 15.6549 16.2078 14.77 15.2407 14.1497C14.2737 13.5294 13.1489 13.1998 12 13.2Z" fill="#8188A0"/>
</svg>
